<svg height="846" width="720" xmlns="http://www.w3.org/2000/svg">
<rect height="846" fill="#555" width="720"></rect>
<text fill="#7f7" font-family="Courier New" font-size="12" xml:space="preserve">
<tspan x="10" y="26">12 megabytes installed</tspan>
<tspan x="10" y="42"></tspan>
<tspan x="10" y="58">node_modules</tspan>
<tspan x="10" y="74">└─┬ odata-server@1.3.7 </tspan>
<tspan x="10" y="90">  ├── basic-auth-connect@1.0.0 </tspan>
<tspan x="10" y="106">  ├─┬ body-parser@1.9.2 </tspan>
<tspan x="10" y="122">  │ ├── bytes@1.0.0 </tspan>
<tspan x="10" y="138">  │ ├── depd@1.0.1 </tspan>
<tspan x="10" y="154">  │ ├── iconv-lite@0.4.4 </tspan>
<tspan x="10" y="170">  │ ├── media-typer@0.3.0 </tspan>
<tspan x="10" y="186">  │ ├─┬ on-finished@2.1.1 </tspan>
<tspan x="10" y="202">  │ │ └── ee-first@1.1.0 </tspan>
<tspan x="10" y="218">  │ ├── qs@2.3.2 </tspan>
<tspan x="10" y="234">  │ ├── raw-body@1.3.0 </tspan>
<tspan x="10" y="250">  │ └─┬ type-is@1.5.7 </tspan>
<tspan x="10" y="266">  │   └─┬ mime-types@2.0.14 </tspan>
<tspan x="10" y="282">  │     └── mime-db@1.12.0 </tspan>
<tspan x="10" y="298">  ├─┬ connect@3.3.2 </tspan>
<tspan x="10" y="314">  │ ├─┬ debug@2.1.3 </tspan>
<tspan x="10" y="330">  │ │ └── ms@0.7.0 </tspan>
<tspan x="10" y="346">  │ ├── finalhandler@0.3.2 </tspan>
<tspan x="10" y="362">  │ ├── parseurl@1.3.1 </tspan>
<tspan x="10" y="378">  │ └── utils-merge@1.0.0 </tspan>
<tspan x="10" y="394">  ├── datajs@1.0.3 </tspan>
<tspan x="10" y="410">  ├─┬ errorhandler@1.2.2 </tspan>
<tspan x="10" y="426">  │ ├─┬ accepts@1.1.4 </tspan>
<tspan x="10" y="442">  │ │ └── negotiator@0.4.9 </tspan>
<tspan x="10" y="458">  │ └── escape-html@1.0.1 </tspan>
<tspan x="10" y="474">  ├─┬ jaydata@1.3.6 </tspan>
<tspan x="10" y="490">  │ └── acorn@0.1.0 </tspan>
<tspan x="10" y="506">  ├─┬ mongodb@2.2.26 </tspan>
<tspan x="10" y="522">  │ ├── es6-promise@3.2.1 </tspan>
<tspan x="10" y="538">  │ ├─┬ mongodb-core@2.1.10 </tspan>
<tspan x="10" y="554">  │ │ ├── bson@1.0.4 </tspan>
<tspan x="10" y="570">  │ │ └─┬ require_optional@1.0.0 </tspan>
<tspan x="10" y="586">  │ │   ├── resolve-from@2.0.0 </tspan>
<tspan x="10" y="602">  │ │   └── semver@5.3.0 </tspan>
<tspan x="10" y="618">  │ └─┬ readable-stream@2.2.7 </tspan>
<tspan x="10" y="634">  │   ├── buffer-shims@1.0.0 </tspan>
<tspan x="10" y="650">  │   ├── core-util-is@1.0.2 </tspan>
<tspan x="10" y="666">  │   ├── inherits@2.0.3 </tspan>
<tspan x="10" y="682">  │   ├── isarray@1.0.0 </tspan>
<tspan x="10" y="698">  │   ├── process-nextick-args@1.0.7 </tspan>
<tspan x="10" y="714">  │   ├── string_decoder@1.0.0 </tspan>
<tspan x="10" y="730">  │   └── util-deprecate@1.0.2 </tspan>
<tspan x="10" y="746">  ├── q@0.8.5 </tspan>
<tspan x="10" y="762">  ├── qs@0.5.0 </tspan>
<tspan x="10" y="778">  ├─┬ url@0.11.0 </tspan>
<tspan x="10" y="794">  │ ├── punycode@1.3.2 </tspan>
<tspan x="10" y="810">  │ └── querystring@0.2.0 </tspan>
<tspan x="10" y="826">  └── xmldom@0.1.11</tspan>
</text>
</svg>
